<?xml version="1.0" encoding="UTF-8"?>
<svg id="Capa_1" data-name="Capa 1" xmlns="http://www.w3.org/2000/svg" viewBox="0 0 1080 1080">
  <path d="M789.25,588.72c0-20.73,15.15-35.9,35.95-35.9s35.95,15.17,35.95,35.9-15.15,36-35.95,36-35.95-15.17-35.95-36ZM855.19,588.72c0-17.65-12.65-30.74-29.99-30.74s-29.99,13.09-29.99,30.74,12.75,30.84,29.99,30.84,29.99-13.09,29.99-30.84ZM810.05,569.19h15.99c8.67,0,14.32,4.46,14.32,11.31,0,4.66-2.51,8.33-7.21,10.02,3.76.59,6.06,2.68,6.37,6.45l.21,4.96c.21,3.37.52,5.36,1.05,6.45h-7.11c-.42-1.09-.73-3.27-.84-5.75l-.21-4.56c-.21-3.67-1.88-4.86-6.37-4.86h-9.09v15.17h-7.11v-39.17ZM817.16,575.34v12.4h9.3c4.28,0,6.79-2.28,6.79-6.15s-2.72-6.25-7.11-6.25h-8.99Z"/>
  <g>
    <g>
      <path d="M388.47,491.26c0-22.2,11.5-35.98,29.93-35.98,15.26,0,24.98,9.71,25.77,25.67h-10.21c-.69-10.8-6.34-16.75-15.66-16.75-12.39,0-19.43,9.81-19.43,27.06s6.94,26.96,19.33,26.96c9.91,0,15.86-6.74,16.45-18.24h10.21c-.79,16.75-11.2,27.16-27.16,27.16-18.04,0-29.24-13.68-29.24-35.88Z"/>
      <path d="M456.24,456.27h27.75c13.98,0,22.8,7.83,22.8,19.92,0,8.62-4.36,15.16-11.6,17.84,6.24,1.19,9.81,4.96,10.21,11.4l.4,9.12c.4,6.24.89,9.61,1.78,11.6h-10.21c-.59-2.08-.99-5.75-1.29-10.41l-.4-8.62c-.3-6.54-2.97-8.82-10.6-8.82h-18.73v27.85h-10.11v-69.88ZM466.35,465.58v24.48h18.24c7.83,0,12.09-4.36,12.09-12.19s-4.56-12.29-12.49-12.29h-17.84Z"/>
      <path d="M563.38,526.14h-43.21v-69.88h43.21v9.32h-33.1v21.11h25.87v8.92h-25.87v21.21h33.1v9.32Z"/>
      <path d="M612.98,507.21h-26.76l-6.05,18.93h-10.01l23.09-69.88h12.59l23.19,69.88h-10.01l-6.05-18.93ZM610.2,498.29l-10.7-33.3-10.51,33.3h21.21Z"/>
      <path d="M652.7,465.58v60.56h-10.11v-60.56h-18.73v-9.32h48.67v9.32h-19.82Z"/>
      <path d="M675.74,491.16c0-22.8,11-35.88,30.13-35.88s30.03,13.08,30.03,35.88-11,35.98-30.03,35.98-30.13-13.08-30.13-35.98ZM725.39,491.16c0-17.44-6.84-26.96-19.53-26.96s-19.72,9.51-19.72,26.96,6.94,27.06,19.72,27.06,19.53-9.61,19.53-27.06Z"/>
      <path d="M747.77,456.27h27.75c13.98,0,22.8,7.83,22.8,19.92,0,8.62-4.36,15.16-11.6,17.84,6.24,1.19,9.81,4.96,10.21,11.4l.4,9.12c.4,6.24.89,9.61,1.78,11.6h-10.21c-.59-2.08-.99-5.75-1.29-10.41l-.4-8.62c-.3-6.54-2.97-8.82-10.6-8.82h-18.73v27.85h-10.11v-69.88ZM757.88,465.58v24.48h18.24c7.83,0,12.09-4.36,12.09-12.19s-4.56-12.29-12.49-12.29h-17.84Z"/>
      <path d="M808.52,502.45h8.92c0,10.61,7.04,16.25,18.73,16.25,10.7,0,14.67-4.96,14.67-11,0-18.63-40.93-6.94-40.93-33.2,0-11.6,8.52-19.23,23.19-19.23,16.95,0,26.07,9.42,26.07,22.9h-8.92c0-9.32-6.24-14.47-16.35-14.47-9.02,0-13.68,4.26-13.68,10.6,0,18.34,40.93,6.84,40.93,32.91,0,12.49-9.32,19.92-24.98,19.92-16.55,0-27.65-8.43-27.65-24.68Z"/>
    </g>
    <g>
      <path d="M218.85,588.82c0-22.2,11.5-35.98,29.93-35.98,15.26,0,24.98,9.71,25.77,25.67h-10.21c-.69-10.8-6.34-16.75-15.66-16.75-12.39,0-19.43,9.81-19.43,27.06s6.94,26.96,19.33,26.96c9.91,0,15.86-6.74,16.45-18.24h10.21c-.79,16.75-11.2,27.16-27.16,27.16-18.04,0-29.24-13.68-29.24-35.88Z"/>
      <path d="M286.63,553.84h27.75c13.98,0,22.8,7.83,22.8,19.92,0,8.62-4.36,15.16-11.6,17.84,6.24,1.19,9.81,4.96,10.21,11.4l.4,9.12c.4,6.24.89,9.61,1.78,11.6h-10.21c-.6-2.08-.99-5.75-1.29-10.41l-.4-8.62c-.3-6.54-2.97-8.82-10.61-8.82h-18.73v27.85h-10.11v-69.88ZM296.74,563.15v24.48h18.24c7.83,0,12.09-4.36,12.09-12.19s-4.56-12.29-12.49-12.29h-17.84Z"/>
      <path d="M388.64,604.78h-26.76l-6.05,18.93h-10.01l23.09-69.88h12.59l23.19,69.88h-10.01l-6.05-18.93ZM385.87,595.86l-10.7-33.3-10.51,33.3h21.21Z"/>
      <path d="M428.36,563.15v60.56h-10.11v-60.56h-18.73v-9.32h48.67v9.32h-19.82Z"/>
      <path d="M499.46,623.71h-43.21v-69.88h43.21v9.32h-33.1v21.11h25.87v8.92h-25.87v21.21h33.1v9.32Z"/>
    </g>
  </g>
</svg>
