<?xml version="1.0" encoding="UTF-8"?>
<svg id="Capa_1" data-name="Capa 1" xmlns="http://www.w3.org/2000/svg" viewBox="0 0 1781.41 473.67">
  <defs>
    <style>
      .cls-1 {
        fill: #fff;
      }
    </style>
  </defs>
  <g>
    <path class="cls-1" d="M419.37,73.43c-4.63-21.35-11.8-41.06-29.19-55.34-11.8-9.7-26.02-14.08-40.68-17.04C346.01.33,342.44,0,338.87,0h-6.09c-3.67,0-7.33.37-10.92,1.1l-19.52,3.99c-2.49.51-4.63,1.16-7.34,2.04-48.98,15.96-100.61,36.25-144.54,62.92-29.29,17.78-56.99,46.94-79.43,72.87C43.93,174.22,7.91,236.84,2.01,277.82c-.31,2.13.24,4.83-.25,7.06C.78,289.3,0,293.75,0,298.28v12.11c0,3.55.59,7.05,1.4,10.51.58,2.46.36,5.52.71,7.64,6.84,41.68,43.56,88.27,77.73,111.99,49.91,34.66,89.72,29.11,147.03,28.48,20.8-.23,42.67,1.07,63.28.02,54.64-2.78,107.95-43.19,94.78-103.1-1.38-6.29-6.35-20.98-10.54-25.6-3.44-3.8-21.76-13.52-26.76-13.9-4.1-.31-11.76,1.48-19.36,4.05-8.18,2.76-15.38,7.69-21.49,13.78-1.42,1.41-2.97,2.68-4.64,3.8-1.37.92-2.69,1.9-3.96,2.94-5.37,4.37-11.75,7.96-17.04,12.24-10.23,8.29-15.4,15.22-27.66,22.03-33.34,18.5-58.88,21.18-92.04.8-9.99-6.14-13.56-10.84-21.42-18.59-3.67-3.62-8.33-6.27-11.88-10.06-14.78-15.76-22.22-38.26-28.87-58.24-1.73-5.21-3.33-6.61-3.75-13.03-3.47-53.6,33.11-93.8,67.79-129.08,11.91-12.12,19.63-19.37,34.44-28.16,27.01-16.02,61.58-33.71,93.07-37.3,31.62-3.6,52.15,22.2,53.88,51.93,1.06,18.17-13.51,31.89.12,49.56,20.91,27.13,56.22-17.82,66.07-35.68,16.94-30.74,15.79-50.42,8.5-84.01Z"/>
    <path class="cls-1" d="M539.41,170.21c-23.07,12.53-42.47,43.84-68.93,45.29-21.3,1.17-21.24-28.46-44.27-24.24-20.3,3.71-32.5,39.92-36.72,57.5-7.31,30.51,8.96,69.55,7.69,103.17-1.1,29.37-9.2,73.17-2.9,100.98,2.51,11.08,14.52,16.21,24.23,19.65.38.13.74.26,1.11.39,0,0,0,0,.01,0,1.72.03,3.43.29,5.13.55.36.05.72.11,1.07.17,0,0,.01,0,.02,0,.24.02.48-.05.69-.18,3.08-1.92,7.91-1.27,11.34-2.16,15.92-4.1,19.03-29.92,21.71-43.47,8.13-41.2,11.88-82.92,24.56-123.19,8.77-27.87,34.04-83.52,60.5-97.59,10.97-5.83,20.75,3.95,22.29,14.54,1.61,11.07-2.33,21.5,10.81,26.61,8.85,3.44,18.29,2.87,25.04-4.34,2.09-2.22,3.09-5.52,4.93-7.98,7.73-10.36,16.16-17.94,18.96-31.38,12.61-60.54-51.25-53.9-87.28-34.33Z"/>
    <path class="cls-1" d="M1781.13,106.45c.37,3.3.37,10.89,0,14.19-1.68,14.91-15.26,27.23-29.99,28.41-53.34,4.27-53.03-75.41-.03-70.98,14.86,1.24,28.32,13.26,30.03,28.38ZM1741.61,84.05c-31.57,3.82-31.25,56.27,1.12,59.16,43.34,3.88,42.86-64.49-1.12-59.16Z"/>
    <path class="cls-1" d="M1622.2,57.61c60.23-6.15,49.64,85.91,45.24,123.28-5.39,45.76-18.73,87.35-12.75,134.19,1.08,8.44,2.84,20.05,5.55,28,5.01,14.76,23.38,22.14,34.4,32.07,8.53,7.68,26,29.05,16.79,40.67-3.35,4.23-6.3.78-10.08.36-12.9-1.46-19.09,16.37-24.52,25.06-12.53,20.06-32.22,38.61-56.86,24.68-36.2-20.47-17.45-69.49-15.7-103.01,1.38-26.32.51-53.06,3.23-79.36,3.71-35.88,16.95-70.07,21.2-105.9,1.94-16.31,3.2-52.73-22.18-49.91-23.54,2.61-47.78,53.97-51.12,74.71-4.02,24.94.42,57.72,3.78,82.95,3.86,28.99,15.62,67.57,3.9,95.05-13.71,32.13-53.7,31.46-68.89.88-24.17-48.68,14.85-117.03-12.68-162.81-16.93-28.13-39.17-7.74-49.04,13.31-27.51,58.63,11.1,149.86-41.19,195.6-48.3,42.26-105.52,2.07-102.67-56.81,1.45-29.95,17.11-55.87,24.12-84.28,8.29-33.57,6.15-69.93,23.56-100.97,13.88-24.74,28.62-22.6,52.26-31,33.14-11.77,52.81-47.85,93.09-37.28,18.79,4.93,25.43,21.51,40.86,29.48,20.89,10.79,24.1-8.95,30.87-22.93,12.45-25.68,37.78-62.86,68.84-66.03Z"/>
    <path class="cls-1" d="M1212.32,175.03c33.65-3.23,65.96,14.48,66.49,51.1.38,26.19-5.93,60.93-11.05,86.89-4.42,22.44-11.39,42.94-16.53,64.77-4.32,18.34-10.01,46.22,16.42,48.65,14.52,1.33,25.66-2.18,39.7,5.48,20.88,11.4,6.43,31.57-12.13,33.7-13.9,1.6-28.04-4.51-39.47-11.81-17.48-11.18-21.79-22.01-44.38-9.41-7.93,4.42-14.09,11.49-21.96,16.11-37.81,22.19-82.19,13.62-94.26-31.99-12.35-46.67,30.22-73.24,58.9-100.77,19.35-18.58,40.75-40.92,48.08-67.43,5.53-19.99-13.3-28.62-27.77-16.79-6.83,5.58-10.78,15.38-17.76,20.96-24.96,19.99-51.07-30.03-30.32-50.3,14.37-14.03,66.13-37.26,86.03-39.17ZM1196.8,336.91c-12.45,1.84-39.61,34.53-43.76,46.61-6.45,18.77,7.74,28.71,25,22.41,19.07-6.97,29.66-31.68,30.53-50.77.31-6.89-2.09-19.67-11.77-18.24Z"/>
    <path class="cls-1" d="M697.21,191.16c53.74-3.5,64.24,54.39,55.44,96.06-10.13,47.97-42.92,86.61-93.08,93.42-9.75,1.32-19.9-.71-26.76,8.09-15.11,19.36,17.26,40.81,34.52,41.01,9.63.11,18.47-5.25,28.99-3.87,21.68,2.85,18.75,41.82-3.99,44.94-10.29,1.41-42.2-8.36-53.87-11.63-12.03-3.37-26.36-7.49-37.09-13.9-21.64-12.93-44.07-59.39-47.8-83.84-3.16-20.69,4.75-26.68,13.71-42.71s14.48-32.11,23.92-47.7c22.99-37.96,58.71-76.79,106-79.86ZM673.3,246.62c-25.54,3.47-73.05,54.26-54.6,81.34,22.18,32.57,89.71-12.89,90.26-46.99.36-21.98-12.76-37.46-35.66-34.35Z"/>
    <path class="cls-1" d="M1061.27,240.83c51.73-2.67,73.02,41.87,56.77,87.07-13.83,38.46-47.45,61.74-86.06,71.41-11.07,2.77-34.48,3.84-40.17,14.69-7.99,15.24,19.21,23.7,29.97,25.27,21,3.05,28.38-5.12,45.75-6.35,28.32-2.02,28.82,28.6,6.91,35.94-12.97,4.35-27.81.91-41.14.18-22.51-1.23-50.8-.96-72.25-7.79-21-6.68-51.94-37.51-60.3-57.79-8.03-19.49,3.58-27.19,12.28-42.38,4.92-8.59,8.48-18.04,13.33-26.67,26.4-46.95,79.2-90.7,134.89-93.57ZM1036.1,289.22c-22.25,2.03-54.41,25.73-65.58,44.78-7.26,12.37-7.5,27.33,7.17,33.87,25.76,11.48,75.98-15.89,89.21-38.82,13.5-23.39-7.44-41.96-30.81-39.82Z"/>
    <path class="cls-1" d="M865.69,227.29c33.09-2.56,58.2,20.31,60.8,53.04,4.37,55.03-32.05,100.47-84.41,113.68-11.29,2.85-37.28,3.88-36.87,20.44.3,12.28,22.1,19.93,32.06,21.51,14.33,2.28,22.56-3.56,35.63-6,36.29-6.79,31.34,40.63-.26,39.73-35.85-5.74-84.84,1.07-113.65-24.52-13.05-11.59-36.9-40.11-39.39-57.4-2.29-15.88,6.92-23.79,13.38-36.37,6.82-13.28,11.08-27.44,18.73-40.63,23.94-41.28,64.05-79.62,114-83.48ZM844.37,277.6c-22.9,2.57-61.57,36.36-63.14,60.12-.62,9.36,3.58,18.55,12.49,22.41,25.37,10.98,70.14-17.24,81.25-40.33,11.04-22.94-5.84-44.98-30.6-42.19Z"/>
    <path class="cls-1" d="M1758.7,133.11l-2.63-.48c-1.05-.19-1.78-1.15-1.67-2.2.44-3.98-1.13-9.58-4.15-11.51-3.2-2.04-11.09-3.12-11.09,2.05v10.97c0,1.99-3.95,1.7-6.33.95-.85-.27-1.42-1.06-1.42-1.95v-35.27c0-.71.37-1.37.98-1.75h0c.41-.25.89-.34,1.36-.27,8.07,1.13,16.47-2.47,23.8,3.13,6.06,4.62,4.38,11.63.73,17.12-.5.76-.43,1.75.16,2.45,1.21,1.43,2.66,3.48,2.66,4.62v10.12c0,1.28-1.16,2.25-2.42,2.02ZM1739.45,104.92c-.26,1.89-.52,4.02-.35,5.47.11.89.78,1.63,1.67,1.78,7.74,1.28,17.82-1.73,10.97-10.15-.38-.47-.96-.72-1.56-.72h-6.58c-2.1,0-3.86,1.55-4.14,3.63Z"/>
  </g>
  <text/>
</svg>